<svg width="60" height="60" viewBox="0 0 60 60" fill="none" xmlns="http://www.w3.org/2000/svg">
<g clip-path="url(#clip0_1_15)">
<path d="M59.6908 48.874C60.1052 49.2884 60.1047 49.9727 59.6784 50.3746C45.8005 63.4525 23.9459 63.2043 10.3709 49.6294C-3.20406 36.0546 -3.45238 14.1996 9.62572 0.321828C10.0276 -0.104617 10.7119 -0.104851 11.1263 0.309406L59.6908 48.874Z" fill="#8CD76E"/>
<path d="M58.3043 47.4872C45.6593 60.1322 25.1578 60.1323 12.5127 47.4872C-0.132417 34.8421 -0.1323 14.3407 12.5127 1.69559L58.3043 47.4872Z" fill="#DCF0B4"/>
<path d="M56.2157 45.3986C44.7242 56.8901 26.0929 56.8901 14.6013 45.3986C3.10969 33.9071 3.1098 15.2757 14.6013 3.78421L56.2157 45.3986Z" fill="#FF6464"/>
<path d="M24.3473 24.6424C23.5844 25.4053 22.3475 25.4053 21.5845 24.6424C20.8216 23.8795 20.8216 22.6426 21.5845 21.8796C22.3474 21.1167 25.038 21.1889 25.038 21.1889C25.038 21.1889 25.1103 23.8795 24.3473 24.6424Z" fill="#0000FF"/>
<path d="M17.5119 17.7964C16.749 18.5593 15.5121 18.5593 14.749 17.7964C13.9862 17.0335 13.9862 15.7966 14.749 15.0336C15.5119 14.2707 18.2026 14.3429 18.2026 14.3429C18.2026 14.3429 18.2749 17.0334 17.5119 17.7964Z" fill="#0000FF"/>
<path d="M31.1827 31.4884C30.4198 32.2513 29.1829 32.2513 28.4199 31.4884C27.657 30.7256 27.657 29.4886 28.4199 28.7256C29.1828 27.9628 31.8734 28.0349 31.8734 28.0349C31.8734 28.0349 31.9457 30.7254 31.1827 31.4884Z" fill="#0000FF"/>
<path d="M38.0182 38.3344C37.2554 39.0973 36.0184 39.0973 35.2554 38.3344C34.4924 37.5715 34.4925 36.3346 35.2554 35.5716C36.0183 34.8086 38.7089 34.8809 38.7089 34.8809C38.7089 34.8809 38.7811 37.5714 38.0182 38.3344Z" fill="#0000FF"/>
<path d="M15.5538 33.4544C14.7909 34.2173 13.554 34.2173 12.791 33.4544C12.0281 32.6914 12.0281 31.4546 12.791 30.6916C13.5539 29.9287 16.2445 30.0009 16.2445 30.0009C16.2445 30.0009 16.3168 32.6914 15.5538 33.4544Z" fill="#0000FF"/>
<path d="M22.3916 40.292C21.6287 41.055 20.3918 41.055 19.6287 40.292C18.8659 39.5291 18.8659 38.2922 19.6287 37.5292C20.3916 36.7663 23.0823 36.8385 23.0823 36.8385C23.0823 36.8385 23.1544 39.529 22.3916 40.292Z" fill="#0000FF"/>
<path d="M29.2292 47.1297C28.4663 47.8926 27.2294 47.8926 26.4664 47.1297C25.7034 46.3668 25.7035 45.1299 26.4664 44.3669C27.2293 43.6038 29.9199 43.6762 29.9199 43.6762C29.9199 43.6762 29.9921 46.3668 29.2292 47.1297Z" fill="#0000FF"/>
<path d="M44.8537 45.1805C44.0908 45.9434 42.8539 45.9434 42.0908 45.1805C41.328 44.4175 41.328 43.1807 42.0908 42.4177C42.8537 41.6547 45.5444 41.727 45.5444 41.727C45.5444 41.727 45.6165 44.4176 44.8537 45.1805Z" fill="#0000FF"/>
<path d="M16.5795 25.5858C15.8166 26.3487 14.5797 26.3487 13.8167 25.5858C13.0538 24.8229 13.0538 23.586 13.8167 22.823C14.5796 22.0601 17.2702 22.1323 17.2702 22.1323C17.2702 22.1323 17.3424 24.8228 16.5795 25.5858Z" fill="#0000FF"/>
<path d="M23.4172 32.4235C22.6543 33.1864 21.4174 33.1864 20.6544 32.4235C19.8915 31.6606 19.8915 30.4237 20.6544 29.6607C21.4172 28.8978 24.1079 28.97 24.1079 28.97C24.1079 28.97 24.18 31.6605 23.4172 32.4235Z" fill="#0000FF"/>
<path d="M30.2548 39.2611C29.4919 40.0241 28.255 40.0241 27.492 39.2611C26.7291 38.4982 26.7291 37.2613 27.492 36.4983C28.2549 35.7354 30.9455 35.8076 30.9455 35.8076C30.9455 35.8076 31.0177 38.4981 30.2548 39.2611Z" fill="#0000FF"/>
<path d="M37.0925 46.0988C36.3296 46.8617 35.0927 46.8617 34.3297 46.0988C33.5667 45.3359 33.5668 44.099 34.3297 43.336C35.0925 42.573 37.7832 42.6453 37.7832 42.6453C37.7832 42.6453 37.8555 45.3359 37.0925 46.0988Z" fill="#0000FF"/>
</g>
<defs>
<clipPath id="clip0_1_15">
<rect width="60" height="60" fill="white"/>
</clipPath>
</defs>
</svg>
